<svg width="192" height="192" viewBox="0 0 192 192" xmlns="http://www.w3.org/2000/svg">
  <defs>
    <linearGradient id="bankGrad" x1="0%" y1="0%" x2="100%" y2="100%">
      <stop offset="0%" style="stop-color:#2979FF;stop-opacity:1" />
      <stop offset="100%" style="stop-color:#1565C0;stop-opacity:1" />
    </linearGradient>
  </defs>
  <!-- Background -->
  <rect width="192" height="192" rx="24" fill="url(#bankGrad)"/>
  <!-- Bank building icon scaled for 192x192 -->
  <!-- Bank columns -->
  <rect x="24" y="72" width="12" height="72" fill="white" rx="2"/>
  <rect x="48" y="72" width="12" height="72" fill="white" rx="2"/>
  <rect x="72" y="72" width="12" height="72" fill="white" rx="2"/>
  <rect x="96" y="72" width="12" height="72" fill="white" rx="2"/>
  <rect x="120" y="72" width="12" height="72" fill="white" rx="2"/>
  <rect x="144" y="72" width="12" height="72" fill="white" rx="2"/>
  
  <!-- Bank roof/top -->
  <path d="M12 72 L96 24 L180 72 L168 72 L96 36 L24 72 Z" fill="white"/>
  
  <!-- Bank base -->
  <rect x="12" y="144" width="168" height="18" fill="white" rx="2"/>
  
  <!-- Bank steps -->
  <rect x="6" y="162" width="180" height="12" fill="white" rx="2"/>
  
  <!-- Bank entrance door -->
  <rect x="84" y="96" width="24" height="48" fill="#2979FF" rx="4"/>
  
  <!-- Door details -->
  <circle cx="102" cy="120" r="2" fill="white"/>
  
  <!-- Text below -->
  <text x="96" y="185" text-anchor="middle" font-family="Arial, sans-serif" font-size="14" font-weight="bold" fill="white">VB</text>
</svg>