<svg width="512" height="512" viewBox="0 0 512 512" xmlns="http://www.w3.org/2000/svg">
  <defs>
    <linearGradient id="bankGrad" x1="0%" y1="0%" x2="100%" y2="100%">
      <stop offset="0%" style="stop-color:#2979FF;stop-opacity:1" />
      <stop offset="100%" style="stop-color:#1565C0;stop-opacity:1" />
    </linearGradient>
  </defs>
  <!-- Background -->
  <rect width="512" height="512" rx="64" fill="url(#bankGrad)"/>
  
  <!-- Bank building icon scaled for 512x512 -->
  <!-- Bank columns -->
  <rect x="64" y="192" width="32" height="192" fill="white" rx="4"/>
  <rect x="128" y="192" width="32" height="192" fill="white" rx="4"/>
  <rect x="192" y="192" width="32" height="192" fill="white" rx="4"/>
  <rect x="256" y="192" width="32" height="192" fill="white" rx="4"/>
  <rect x="320" y="192" width="32" height="192" fill="white" rx="4"/>
  <rect x="384" y="192" width="32" height="192" fill="white" rx="4"/>
  
  <!-- Bank roof/top -->
  <path d="M32 192 L256 64 L480 192 L448 192 L256 96 L64 192 Z" fill="white"/>
  
  <!-- Bank base -->
  <rect x="32" y="384" width="448" height="48" fill="white" rx="8"/>
  
  <!-- Bank steps -->
  <rect x="16" y="432" width="480" height="32" fill="white" rx="8"/>
  
  <!-- Bank entrance door -->
  <rect x="224" y="256" width="64" height="128" fill="#2979FF" rx="8"/>
  
  <!-- Door details -->
  <circle cx="272" cy="320" r="6" fill="white"/>
  
  <!-- Door panels -->
  <rect x="232" y="264" width="48" height="40" fill="none" stroke="white" stroke-width="2" rx="4"/>
  <rect x="232" y="312" width="48" height="40" fill="none" stroke="white" stroke-width="2" rx="4"/>
  
  <!-- Text below -->
  <text x="256" y="490" text-anchor="middle" font-family="Arial, sans-serif" font-size="36" font-weight="bold" fill="white">VILLAGE BANKING</text>
</svg>